<?xml version="1.0" encoding="utf-8"?>
<!-- Generator: Adobe Illustrator 25.2.0, SVG Export Plug-In . SVG Version: 6.00 Build 0)  -->
<svg version="1.1" id="Capa_1" xmlns="http://www.w3.org/2000/svg" xmlns:xlink="http://www.w3.org/1999/xlink" x="0px" y="0px"
	 viewBox="0 0 425.2 425.2" style="enable-background:new 0 0 425.2 425.2;" xml:space="preserve">
<style type="text/css">
	.st0{fill:#F9B104;}
	.st1{fill:#F9BB8D;}
	.st2{fill:#259DAB;}
	.st3{fill:#C5D2DB;}
	.st4{fill:#D99870;}
	.st5{fill:#E5D7D8;}
	.st6{fill:#F0E8E4;}
	.st7{fill:#3D2216;}
	.st8{opacity:0.5;}
	.st9{fill:#FFFFFF;}
	.st10{fill:#AFAAA8;}
</style>
<ellipse class="st0" cx="213.02" cy="365.12" rx="150" ry="17.45"/>
<g>
	<path class="st1" d="M160.77,169.2c-1.25-6.28-7.22-12.12-15.42-10.33c-8.19,1.8-8.22,9.44-6.97,15.72
		c0.07,0.32,4.1,17.3,6.47,20.87c2.37,3.58,5.8,10.37,11.57,8.43c3.81-1.28,6.06-8.07,6.96-12.97
		C164.28,186.02,160.77,169.2,160.77,169.2z"/>
	<path class="st1" d="M265.1,168.94c1.25-6.28,7.22-12.12,15.42-10.33c8.2,1.79,9,9.66,7.76,15.93c-0.07,0.33-4.43,16.04-6.47,20.88
		c-1.68,3.98-6.26,11-12.21,8.54c-3.72-1.53-6.2-8.41-7.1-13.31C261.6,185.77,265.1,168.94,265.1,168.94z"/>
	<path class="st2" d="M85.46,361.2h254.28c0,0-5.01-62.41-13.35-71.77c-8.35-9.35-71.91-30.26-71.91-30.26l-83.08-0.24
		c0,0-66.88,19.57-71.45,30.5C95.37,300.37,85.46,361.2,85.46,361.2z"/>
	<path class="st3" d="M204.6,259.03l-33.21-0.09c0,0-66.88,19.57-71.45,30.5c-4.57,10.93-14.48,71.77-14.48,71.77H119
		c0,0,9.91-60.84,14.48-71.77C137.87,278.93,199.79,260.45,204.6,259.03z"/>
	<path class="st4" d="M180.38,254.85c0,0,20.95,17.17,32.69,17.17c11.75,0,32.68-17.17,32.68-17.17s-8.86-10.32-2.75-23.87
		c6.11-13.55-68.12-12.44-59.5,0C192.14,243.42,180.38,254.85,180.38,254.85z"/>
	<path class="st5" d="M202.14,268.93c1.56-4.29,4.7-8.6,9.73-12.26c5.03-3.67,8-0.37,29.27-12.58c-0.58-3.72-0.35-8.2,1.87-13.11
		c6.11-13.55-68.12-12.44-59.5,0c8.63,12.44-3.13,23.87-3.13,23.87S191.54,263.98,202.14,268.93z"/>
	<path class="st3" d="M176.25,253.63l-4.85,5.3c0,0,14.47,35.75,27.04,40.28c3.84,1.38,11.83-16.33,14.62-16.33
		c1.34,0,12.14,18.79,13.78,18.42c12.87-2.94,27.64-42.12,27.64-42.12l-5.44-4.13l-35.98,22.64L176.25,253.63z"/>
	<path class="st1" d="M273.1,121.97c0-27.24-16.88-54.57-61.55-54.57c-44.68,0-60.9,29.91-60.9,57.15c0,1.43-0.14,75.5,8.54,92.51
		c8.67,17,32.55,34.36,53.88,34.44c23.32,0.09,44.28-14.89,54.07-34.44C276.93,197.5,273.1,121.97,273.1,121.97z"/>
	<path class="st6" d="M167.84,128.1c0.38,0.27,0.73,0.51,1.18,0.84c1.22,1.15-4.91,14.83-3.13,14.9
		c8.85,1.86,19.47-17.31,28.12-14.62c15.22,4.74,43.86,43.11,71.96,42.36c7.38-7.12,7.14-49.6,7.14-49.6
		c0-27.24-16.88-54.57-61.55-54.57c-37.02,0-54.46,20.54-59.37,43.07C159.1,113.42,164.88,119.13,167.84,128.1z"/>
	<path class="st6" d="M230.56,232.01c-21.33-0.08-45.2-17.44-53.88-34.45c-8.67-17.01-8.54-91.08-8.54-92.51
		c0-9.47,2.02-19.24,6.45-27.98c-17.04,11.01-23.95,29.78-23.95,47.47c0,1.43-0.14,75.5,8.54,92.51c8.67,17,32.55,34.36,53.88,34.44
		c22.05,0.09,41.97-13.31,52.36-31.29C255.49,227.53,243.39,232.06,230.56,232.01z"/>
	<g>
		<path class="st6" d="M265.13,220.66c0.09-0.16,0.21-0.29,0.3-0.45c-0.5,0.37-1.03,0.69-1.54,1.05
			C264.31,221.07,264.71,220.85,265.13,220.66z"/>
		<path class="st6" d="M223.19,245.75c-21.32-0.08-45.21-17.44-53.88-34.45c-8.67-17.01-8.54-91.07-8.54-92.51
			c0-12.21,3.4-24.86,11.03-35.19c0.8-2.23,1.72-4.42,2.8-6.54c-17.04,11.01-23.95,29.78-23.95,47.47c0,1.43-0.14,75.5,8.54,92.51
			c8.67,17,32.55,34.36,53.88,34.44c12.1,0.05,23.48-4.05,33.07-10.65C239.01,243.98,231.25,245.79,223.19,245.75z"/>
	</g>
	<path class="st7" d="M283.1,115.47c-5.5-29.99-29.99-51.73-70.03-51.48c-39.93,0.25-66.17,24.72-71.41,52.48
		c-2.25,11.89-3.99,34.49-3.06,47.96c6.76-5.56,9.55-6.28,12.82-4.98c2.24,24.49,7.57,24.13,7.57,24.13s0.49-16.63,1.58-27.63
		c1.09-10.99,19.08-12.99,28.08-31.99c28.49-1.24,46.48,35.25,77.72,37.25c-3.09,18.06,3.75,25.24,3.75,25.24s0.72-14.92,3.25-21.99
		c2.2-6.16,8.75-6.16,11.99-3.49C286.89,149.74,286.14,132.04,283.1,115.47z"/>
	<g class="st8">
		<path class="st9" d="M283.1,115.47c-5.5-29.99-29.99-51.73-70.03-51.48c-35.04,0.22-59.54,19.1-68.55,42.49
			c11.23-19.23,33.75-33.68,64.36-33.87c40.04-0.25,64.53,21.49,70.03,51.48c2.23,12.18,3.22,24.96,2.98,35.34
			c1.3,0.24,2.52,0.76,3.46,1.53C286.89,149.74,286.14,132.04,283.1,115.47z"/>
	</g>
	<g>
		<path class="st10" d="M188.64,109.71c-9,19.01-37.99,36.92-50.04,40.47c-0.04-0.62-0.05-1.34-0.08-1.99
			c-0.22,5.94-0.23,11.63,0.08,16.24c6.76-5.56,9.55-6.28,12.82-4.98c2.24,24.49,7.57,24.13,7.57,24.13s0.49-16.63,1.58-27.63
			c1.09-10.99,19.08-12.99,28.08-31.99c28.37-1.24,46.34,34.91,77.33,37.19C243.11,153.22,217.13,108.48,188.64,109.71z"/>
	</g>
	<path class="st9" d="M176.25,245.14l-4.85,13.8c0,0,14.47,27.25,27.04,31.78c3.84,1.38,11.83-16.33,14.62-16.33
		c1.34,0,12.14,18.79,13.78,18.42c12.87-2.94,27.64-33.63,27.64-33.63l-5.44-12.62l-35.98,22.64L176.25,245.14z"/>
</g>
</svg>
